<svg width="240" height="240" viewBox="0 0 240 240" fill="none" xmlns="http://www.w3.org/2000/svg">
<path d="M125.712 239.65C176.705 239.65 217.653 198.234 217.171 147.144C216.689 96.0537 174.961 54.6372 123.967 54.6372C72.9742 54.6372 32.0265 96.0537 32.5082 147.144C32.9899 198.234 74.7186 239.65 125.712 239.65Z" fill="#8DBBFF"/>
<path d="M154.117 235.687L143.026 208.701L135.75 191.009L133.709 186.019L153.968 147.763L120.311 132.752C120.311 132.752 110.43 142.404 99.1773 156.171C97.202 158.565 95.1915 161.101 93.1988 163.724L56.7264 208.846C56.7264 208.846 75.1775 240.198 123.514 239.835C124.503 239.869 125.493 239.884 126.483 239.883C136.115 239.849 145.391 238.392 154.117 235.687Z" fill="#2777EB"/>
<path d="M99.1775 156.174C97.2021 158.568 95.1916 161.104 93.1989 163.727C105.927 176.205 128.446 198.812 137.003 210.876C141.91 217.795 147.352 227.333 152.103 236.274C152.775 236.079 153.446 235.902 154.117 235.708L133.709 186.022L99.1775 156.174Z" fill="#A3C9FF"/>
<path d="M99.1772 156.175L133.708 186.022L153.967 147.767L120.31 132.756C120.31 132.756 110.429 142.39 99.1772 156.175Z" fill="white"/>
<path d="M131.291 199.686L143.395 208.703L135.906 190.572L131.291 199.686Z" fill="#21305B"/>
<path d="M130.184 202.289L135.749 191.01L128.927 200.849L130.184 202.289Z" fill="#21305B"/>
<path d="M132.396 98.7499L140.114 106.139L133.297 119.881L133.928 127.106L129.167 101.867L132.396 98.7499Z" fill="white"/>
<path d="M131.069 140.543C131.069 140.543 127.339 160.961 139.487 175.094L146.939 161.086L131.069 140.543Z" fill="#115EAA"/>
<path d="M156.228 124.331C155.572 123.242 154.952 122.768 153.922 119.799C153.62 118.885 148.313 115.641 147.869 114.57C146.591 111.407 147.044 107.38 144.156 103.06C141.658 99.337 142.858 98.3328 140.116 96.5793L138.642 92.7666C133.6 89.5929 129.922 88.5793 122.852 87.9934C111.875 87.0625 93.9922 88.71 87.807 109.888C81.6041 131.067 102.706 151.936 102.706 151.936L131.193 139.862L131.193 139.932C131.194 140.671 131.328 146.824 135.014 152.391C138.947 158.309 148.718 167.066 159.833 166.362C170.931 165.657 162.484 134.957 162.484 134.957C162.484 134.957 168.297 133.875 168.294 131.994C168.291 130.095 157.716 126.754 156.228 124.331Z" fill="white"/>
<path d="M134.367 94.4469C135.815 93.4071 136.468 93.1423 138.641 92.7871C132.22 89.1761 129.921 88.5998 122.851 88.0139C111.875 87.083 93.9921 88.7305 87.807 109.909C81.6042 131.087 102.706 151.955 102.706 151.955L116.306 136.865C116.306 136.865 112.027 125.234 118.168 119.72C124.309 114.207 129.222 124.308 129.222 124.308C129.222 124.308 132.258 122.141 134.072 118.621C135.869 115.102 139.283 106.675 139.477 105.954C139.652 105.233 134.414 100.934 132.413 98.7751C130.394 96.5984 131.667 96.4205 134.367 94.4469Z" fill="#21305B"/>
<path d="M156.302 138.059C155.386 139.678 156.133 142.524 156.133 142.524C156.133 142.524 145.916 141.17 140.723 132.723C135.513 124.275 131.168 115.386 131.168 115.386L129.221 124.268C129.221 124.268 130.64 126.955 131.195 131.438C131.751 135.937 131.209 139.841 131.209 139.841L131.21 139.912C131.211 140.65 131.345 146.803 135.03 152.37C138.964 158.288 148.734 167.045 159.849 166.341C170.947 165.636 162.5 134.936 162.5 134.936C162.5 134.936 157.201 136.44 156.302 138.059Z" fill="#21305B"/>
<path d="M119.333 140.404C116.151 139.846 114.395 136.315 114.395 136.315C115.841 144.523 125.912 142.854 125.912 142.854L125.607 140.411C125.607 140.393 122.515 140.961 119.333 140.404Z" fill="#115EAA"/>
<path d="M122.215 140.168C128.354 140.158 133.323 135.198 133.312 129.091C133.302 122.983 128.317 118.041 122.177 118.051C116.038 118.061 111.069 123.021 111.08 129.128C111.09 135.236 116.075 140.178 122.215 140.168Z" fill="white"/>
<path d="M138.642 92.7651L157.848 120.81L170.115 132.674L160.753 135.503L148.702 126.17L138.642 92.7651Z" fill="white"/>
<path d="M155.709 143.351L154.851 137.604L162.481 134.936L161.65 144.801L155.709 143.351Z" fill="#21305B"/>
<path d="M27.741 23.605L3.71651 36.7524V63.0473L27.741 76.1948L51.7655 63.0473V36.7524L27.741 23.605Z" fill="#1C64B7"/>
<ellipse rx="2.52948" ry="2.5238" transform="matrix(-1 0 0 1 36.3428 49.8265)" fill="#ECF0F9"/>
<ellipse rx="2.53041" ry="2.5238" transform="matrix(-1 0 0 1 27.2353 49.8265)" fill="#ECF0F9"/>
<ellipse rx="2.53041" ry="2.5238" transform="matrix(-1 0 0 1 19.1411 49.8265)" fill="#ECF0F9"/>
<ellipse cx="210.196" cy="29.7812" rx="29.8038" ry="29.7812" fill="#6EA9FF"/>
<path d="M197.907 23.7785C201.042 21.0543 204.074 18.4154 207.209 15.6913C207.064 15.4952 206.865 15.1782 206.602 14.9008C205.814 13.9597 205.875 13.1058 206.799 12.2875C207.211 11.921 207.642 11.5862 208.053 11.2197C208.896 10.5184 209.727 10.5739 210.436 11.3882C212.676 13.9381 214.91 16.5137 217.143 19.0894C217.853 19.9037 217.74 20.7457 216.949 21.459C216.607 21.7601 216.265 22.0612 215.929 22.3366C214.611 23.4441 214.103 23.4084 212.908 22.1028C212.731 21.9264 212.58 21.756 212.475 21.6233C211.45 22.5267 210.43 23.4044 209.335 24.3731C213.532 29.1639 217.86 34.0933 222.229 39.0862C222.662 39.5656 222.598 40.3106 222.097 40.7108C221.66 41.0713 221.223 41.4319 220.817 41.7727C220.342 42.1788 219.621 42.1213 219.214 41.6478C214.989 36.7422 210.678 31.7355 206.302 26.6594L203.045 29.6807C203.275 29.9779 203.526 30.3068 203.802 30.6416C204.434 31.4381 204.422 32.1949 203.657 32.9141C203.176 33.346 202.695 33.7779 202.188 34.2038C201.339 34.9309 200.501 34.7922 199.817 33.9838C197.571 31.4597 195.383 28.9217 193.195 26.3836C192.446 25.5059 192.502 24.6778 193.388 23.9051C193.495 23.7942 193.623 23.7149 193.73 23.604C195.755 21.7912 195.974 21.7873 197.907 23.7785Z" fill="white"/>
</svg>
